<svg xmlns="http://www.w3.org/2000/svg" viewBox="0 0 900 700" fill="none">
  <rect width="900" height="700" rx="40" fill="#F7F1E8"/>
  <path d="M0 510C105 445 214 417 325 432C462 450 571 532 688 541C771 548 841 522 900 489V700H0V510Z" fill="#D4C0A5"/>
  <path d="M103 379L242 195L378 379H103Z" fill="#6A835B"/>
  <path d="M252 391L414 144L581 391H252Z" fill="#4E6650"/>
  <path d="M489 377L630 209L781 377H489Z" fill="#6A835B"/>
  <circle cx="714" cy="130" r="54" fill="#F0BE6C"/>
  <path d="M150 499C150 451.503 188.503 413 236 413H654C701.497 413 740 451.503 740 499V543H150V499Z" fill="#FFF9F0"/>
  <rect x="187" y="452" width="207" height="33" rx="16.5" fill="#D87E3E"/>
  <rect x="423" y="452" width="137" height="33" rx="16.5" fill="#7C9B62"/>
  <rect x="580" y="452" width="120" height="33" rx="16.5" fill="#C6543C"/>
  <circle cx="276" cy="365" r="44" fill="#F3D1B0"/>
  <path d="M228 435C228 405.177 252.177 381 282 381H296C325.823 381 350 405.177 350 435V498H228V435Z" fill="#B8642D"/>
  <circle cx="461" cy="354" r="40" fill="#F3D1B0"/>
  <path d="M417 427C417 400.49 438.49 379 465 379H474C500.51 379 522 400.49 522 427V498H417V427Z" fill="#4A6A48"/>
  <circle cx="615" cy="370" r="42" fill="#F3D1B0"/>
  <path d="M567 438C567 407.072 592.072 382 623 382C653.928 382 679 407.072 679 438V498H567V438Z" fill="#D69C2F"/>
  <ellipse cx="462" cy="548" rx="154" ry="42" fill="#35513B"/>
  <path d="M390 517C390 490.49 411.49 469 438 469H486C512.51 469 534 490.49 534 517V540H390V517Z" fill="#F3B56F"/>
  <circle cx="433" cy="507" r="12" fill="#D86A3A"/>
  <circle cx="457" cy="500" r="12" fill="#7C9B62"/>
  <circle cx="487" cy="510" r="12" fill="#D86A3A"/>
</svg>
